<svg width="48" height="48" viewBox="0 0 48 48" xmlns="http://www.w3.org/2000/svg">
  <path stroke="#000" stroke-width="4" fill="none" d="m6.54372,38.81645c0,0 0,0 0,-0.21982c0,0 -0.05138,-0.06439 -0.17544,-0.21982c-0.12406,-0.15544 -0.08049,-0.15243 -0.17544,-0.43964c-0.06714,-0.20309 -0.08049,-0.15243 -0.17544,-0.43964c-0.06714,-0.20309 0,-0.21982 -0.17544,-0.43964c0,0 0,-0.21982 0,-0.43965c0,0 0,-0.21982 -0.17544,-0.21982c0,0 0,-0.21982 0,-0.21982c0,0 0,-0.21982 0,-0.43964c0,0 0,-0.21982 0,-0.21982c-0.17544,0 -0.17544,0 -0.17544,-0.21982c0,0 0,-0.21982 0,-0.21982c-0.17544,-0.21982 -0.17544,-0.43964 -0.35088,-0.65947c-0.17544,-0.21982 -0.2166,-0.69293 -0.35088,-1.09911c-0.09495,-0.28721 -0.43619,-0.62072 -0.52632,-1.09911c-0.08062,-0.42788 -0.17544,-0.87929 -0.17544,-1.09911c0,-0.21982 -0.17544,-0.43964 -0.17544,-0.87929c0,0 0,-0.21982 0,-0.43964c0,-0.21982 0,-0.43964 0,-0.65947c0,-0.21982 0.08049,-0.37225 0.17544,-0.65947c0.13428,-0.40618 0,-0.65947 0,-0.87929c0,0 0.17544,-0.21982 0.17544,-0.21982c0,-0.21982 0,-0.21982 0,-0.43964c0,-0.21982 0,-0.21982 0.17544,-0.65947c0,0 0,-0.21982 0,-0.43964c0,-0.43965 0,-0.43965 0,-0.65947c0,-0.21982 0,-0.43964 0,-0.87929c0,0 0,-0.43964 0,-0.43964c0,-0.21982 -0.06714,-0.45638 0,-0.65947c0.09495,-0.28721 0.41161,-0.59472 0.70176,-1.09911c0.22938,-0.39876 0.47238,-0.70035 0.70176,-1.09911c0.14507,-0.25219 0.31996,-0.54653 0.70176,-0.65947c0.17075,-0.0505 0.2971,-0.32068 0.52632,-0.43964c0.16209,-0.08412 0.42437,-0.3119 0.70176,-0.65947c0.27739,-0.34757 0.70176,-0.43964 1.05264,-0.65947c0.35088,-0.21982 0.70176,-0.43964 1.05264,-0.65947c0.35088,-0.21982 0.4954,-0.32671 0.8772,-0.43964c0.17075,-0.0505 0.4954,-0.32671 0.8772,-0.43964c0.34149,-0.10101 0.88659,-0.11881 1.22808,-0.21982c0.3818,-0.11293 0.8772,-0.21982 1.22808,-0.21982c0.17544,0 0.52632,0 0.52632,0c0.35088,0.21982 0.47254,0.32068 0.70176,0.43965c0.32417,0.16825 0.70176,0.21982 1.05264,0.43964c0.35088,0.21982 0.67084,0.54653 1.05264,0.65947c0.17075,0.0505 0.52632,0.21982 0.8772,0.21982c0.35088,0 0.71512,0.1357 0.8772,0.21982c0.22922,0.11897 0.35088,0.21982 0.70176,0.43964c0.35088,0.21982 0.53571,0.11881 0.8772,0.21982c0.3818,0.11293 0.71115,0.11881 1.05264,0.21982c0.3818,0.11293 0.75615,0.07419 1.22808,0.43965c0.21105,0.16344 0.70176,0.43964 0.8772,0.43964c0.35088,0 0.52632,0.21982 0.8772,0.21982c0.17544,0 0.70176,0 1.05264,0c0.52632,0 0.8772,0 1.40352,0c0.17544,0 0.52632,0 0.70176,-0.21982c0.17544,-0.21982 0.5626,-0.39846 0.8772,-0.87929c0.40103,-0.61293 0.70176,-1.09911 0.8772,-1.53875c0.17544,-0.43964 0.31057,-1.10499 0.35088,-1.31893c0.09013,-0.47839 0.1083,-0.89602 0.17544,-1.09911c0.09495,-0.28721 0.17544,-0.65947 0.17544,-0.87929c0,-0.21982 0,-0.65947 0,-0.87929c0,-0.43964 0,-0.87929 0,-1.31893c0,-0.43964 0,-0.65947 0,-1.09911c0,-0.21982 -0.11623,-0.50779 0.17544,-1.09911c0.26088,-0.52889 0.75386,-1.01422 1.22808,-1.53875c0.29409,-0.3253 0.52632,-0.43964 0.70176,-0.65947c0,0 0.17544,0 0.17544,0c0,0 0.1888,0.08412 0.35088,0c0.22923,-0.11897 0.31996,-0.32671 0.70176,-0.43964c0.51224,-0.15151 1.05264,0 1.40352,0c0.35088,0 0.71682,-0.1274 1.05264,0c0.60542,0.22968 0.90984,0.8117 1.22808,1.09911c0.40255,0.36354 0.65009,0.73557 1.05264,1.09911c0.31824,0.28741 0.70176,0.43964 1.05264,0.65947c0.35088,0.21982 0.50048,0.69752 0.70176,0.87929c0.31825,0.28741 0.49552,0.46116 0.70176,0.87929c0.18447,0.37398 0.28374,0.6762 0.35088,0.87929c0.09495,0.28721 0.54446,0.63887 0.70176,0.87929c0.40104,0.61293 0.41009,0.94743 0.70176,1.53875c0.26088,0.52889 0.44571,0.89105 0.52632,1.31893c0.09013,0.47839 0.35088,0.87929 0.35088,1.09911c0,0.43964 0,0.65947 0,0.87929c0,0.21982 -0.06714,0.45638 0,0.65947c0.09495,0.28721 0.26201,0.63277 0.35088,1.31893c0.05621,0.43397 0.09482,1.11087 0.17544,1.53875c0.09013,0.47839 0.17544,0.87929 0.17544,1.31893c0,0.21982 0.17544,0.65947 0.17544,0.87929c0,0.21982 -0.0281,0.6623 0,0.87929c0.08887,0.68616 0.17544,0.87929 0.17544,1.09911l0,0.21982"/>
</svg>